# xmcd
#
# Track frame offsets:
#	150
#	8997
#	22680
#	39437
#	52672
#	61635
#	77997
#	89810
#	103472
#	114300
#	127025
#	140635
#	150632
#	165192
#	177620
#	192550
#	208540
#	219672
#	232717
#	246800
#
# Disc length: 3592 seconds
#
# Revision: 1
# Processed by: cddbd v1.4PL0 Copyright (c) Steve Scherf et al.
# Submitted via: audiograbber 1.82.01
#
DISCID=0b0e0614
DTITLE=Piet Schmit - Amazing Alliance
DYEAR=1900
DGENRE=
TTITLE0=Intro
TTITLE1=Every Breath You Take
TTITLE2=Amazing Alpen Grace
TTITLE3=Easy Fly
TTITLE4=Walking Pictures
TTITLE5=Lonely Stranger
TTITLE6=John And Mary
TTITLE7=Vanessa
TTITLE8=What Know My Love
TTITLE9=Witch Waltz
TTITLE10=Don't Worry Be Happy
TTITLE11=When The Saints
TTITLE12=Trouble in Munich
TTITLE13=Aigen Groove
TTITLE14=Still Got The Blues
TTITLE15=Moving Souls
TTITLE16=You Angel You
TTITLE17=I Love You Just The Way You Are
TTITLE18=Serenade
TTITLE19=Amazing Alliance
EXTD=
EXTT0=
EXTT1=
EXTT2=
EXTT3=
EXTT4=
EXTT5=
EXTT6=
EXTT7=
EXTT8=
EXTT9=
EXTT10=
EXTT11=
EXTT12=
EXTT13=
EXTT14=
EXTT15=
EXTT16=
EXTT17=
EXTT18=
EXTT19=
PLAYORDER=
